<?xml version="1.0" encoding="UTF-8" standalone="no"?>
<!DOCTYPE svg PUBLIC "-//W3C//DTD SVG 1.1//EN" "http://www.w3.org/Graphics/SVG/1.1/DTD/svg11.dtd">
<svg width="100%" height="100%" viewBox="0 0 12200 12200" version="1.1" xmlns="http://www.w3.org/2000/svg" xmlns:xlink="http://www.w3.org/1999/xlink" xml:space="preserve" xmlns:serif="http://www.serif.com/" style="fill-rule:evenodd;clip-rule:evenodd;stroke-linejoin:round;stroke-miterlimit:2;">
    <g transform="matrix(4.16667,0,0,4.16667,0,0)">
        <g transform="matrix(1.84249,0,0,1.84249,-1233.19,-635.285)">
            <path d="M1230.23,1350.46L1463.89,1485.36L1763.52,1312.37L1763.52,1253.65L1463.89,1426.65L1331.93,1350.46L1895.48,1025.09L1895.48,1388.56L1463.89,1637.74L1032.29,1388.56L1032.29,1312.37L1829.5,852.099L1895.48,890.191L1895.48,966.378L1230.23,1350.46Z" style="fill:url(#_Linear1);"/>
        </g>
        <g transform="matrix(1.84249,0,0,1.84249,-1233.19,-635.285)">
            <path d="M1164.25,966.378L1164.25,1025.09L1646.69,746.555L1778.65,822.74L1032.29,1253.65L1032.29,890.191L1463.89,641.009L1595.85,717.196L1164.25,966.378Z" style="fill:url(#_Linear2);"/>
        </g>
    </g>
    <defs>
        <linearGradient id="_Linear1" x1="0" y1="0" x2="1" y2="0" gradientUnits="userSpaceOnUse" gradientTransform="matrix(1750.61,-1082.26,1082.26,1750.61,840.808,1630.12)"><stop offset="0" style="stop-color:black;stop-opacity:1"/><stop offset="1" style="stop-color:rgb(79,133,127);stop-opacity:1"/></linearGradient>
        <linearGradient id="_Linear2" x1="0" y1="0" x2="1" y2="0" gradientUnits="userSpaceOnUse" gradientTransform="matrix(1750.61,-1082.26,1082.26,1750.61,691.553,1388.69)"><stop offset="0" style="stop-color:black;stop-opacity:1"/><stop offset="1" style="stop-color:rgb(0,25,54);stop-opacity:1"/></linearGradient>
    </defs>
</svg>
